<svg xmlns="http://www.w3.org/2000/svg" xmlns:xlink="http://www.w3.org/1999/xlink" width="2000" zoomAndPan="magnify" viewBox="0 0 1500 1499.999933" height="2000" preserveAspectRatio="xMidYMid meet" version="1.0"><defs><g/><clipPath id="5439df693f"><rect x="0" width="1276" y="0" height="415"/></clipPath><clipPath id="31daed0f3c"><path d="M 613.015625 597.566406 L 910 597.566406 L 910 902.066406 L 613.015625 902.066406 Z M 613.015625 597.566406 " clip-rule="nonzero"/></clipPath><clipPath id="7dea871018"><rect x="0" width="850" y="0" height="80"/></clipPath></defs><rect x="-150" width="1800" fill="#ffffff" y="-149.999993" height="1799.99992" fill-opacity="1"/><rect x="-150" width="1800" fill="#000b3d" y="-149.999993" height="1799.99992" fill-opacity="1"/><g transform="matrix(1, 0, 0, 1, 143, 534)"><g clip-path="url(#5439df693f)"><g fill="#ffffff" fill-opacity="1"><g transform="translate(1.909117, 297.232819)"><g><path d="M 191.78125 -76.84375 L 68.5625 -76.84375 C 68.5625 -64.914062 72.425781 -56.082031 80.15625 -50.34375 C 87.882812 -44.601562 96.273438 -41.734375 105.328125 -41.734375 C 114.828125 -41.734375 122.335938 -43.003906 127.859375 -45.546875 C 133.378906 -48.085938 139.671875 -53.109375 146.734375 -60.609375 L 189.140625 -39.421875 C 171.472656 -9.828125 142.101562 4.96875 101.03125 4.96875 C 75.414062 4.96875 53.441406 -3.804688 35.109375 -21.359375 C 16.785156 -38.921875 7.625 -60.066406 7.625 -84.796875 C 7.625 -109.523438 16.785156 -130.722656 35.109375 -148.390625 C 53.441406 -166.054688 75.414062 -174.890625 101.03125 -174.890625 C 127.96875 -174.890625 149.878906 -167.101562 166.765625 -151.53125 C 183.660156 -135.96875 192.109375 -113.722656 192.109375 -84.796875 C 192.109375 -80.816406 192 -78.164062 191.78125 -76.84375 Z M 70.21875 -109.3125 L 134.8125 -109.3125 C 133.488281 -118.144531 130.007812 -124.929688 124.375 -129.671875 C 118.75 -134.421875 111.519531 -136.796875 102.6875 -136.796875 C 92.96875 -136.796875 85.238281 -134.253906 79.5 -129.171875 C 73.757812 -124.097656 70.664062 -117.476562 70.21875 -109.3125 Z M 70.21875 -109.3125 "/></g></g></g><g fill="#ffffff" fill-opacity="1"><g transform="translate(175.795852, 297.232819)"><g><path d="M 93.734375 -174.890625 C 103.453125 -174.890625 113.054688 -173.785156 122.546875 -171.578125 C 132.046875 -169.367188 139.113281 -167.160156 143.75 -164.953125 L 150.71875 -161.640625 L 131.5 -123.21875 C 118.25 -130.28125 105.660156 -133.8125 93.734375 -133.8125 C 87.109375 -133.8125 82.414062 -133.09375 79.65625 -131.65625 C 76.894531 -130.226562 75.515625 -127.523438 75.515625 -123.546875 C 75.515625 -122.660156 75.625 -121.773438 75.84375 -120.890625 C 76.070312 -120.015625 76.515625 -119.1875 77.171875 -118.40625 C 77.835938 -117.632812 78.445312 -116.972656 79 -116.421875 C 79.550781 -115.867188 80.488281 -115.257812 81.8125 -114.59375 C 83.132812 -113.9375 84.179688 -113.441406 84.953125 -113.109375 C 85.734375 -112.785156 87.003906 -112.289062 88.765625 -111.625 C 90.535156 -110.957031 91.863281 -110.457031 92.75 -110.125 C 93.632812 -109.800781 95.125 -109.304688 97.21875 -108.640625 C 99.3125 -107.984375 100.910156 -107.539062 102.015625 -107.3125 C 108.859375 -105.332031 114.820312 -103.125 119.90625 -100.6875 C 124.988281 -98.257812 130.34375 -94.945312 135.96875 -90.75 C 141.601562 -86.5625 145.960938 -81.265625 149.046875 -74.859375 C 152.140625 -68.453125 153.6875 -61.164062 153.6875 -53 C 153.6875 -14.351562 126.859375 4.96875 73.203125 4.96875 C 61.054688 4.96875 49.515625 3.09375 38.578125 -0.65625 C 27.648438 -4.414062 19.757812 -8.171875 14.90625 -11.921875 L 7.625 -17.890625 L 31.46875 -57.96875 C 33.226562 -56.414062 35.546875 -54.59375 38.421875 -52.5 C 41.296875 -50.40625 46.484375 -47.535156 53.984375 -43.890625 C 61.492188 -40.242188 68.007812 -38.421875 73.53125 -38.421875 C 85.675781 -38.421875 91.75 -42.503906 91.75 -50.671875 C 91.75 -54.429688 90.203125 -57.359375 87.109375 -59.453125 C 84.023438 -61.554688 78.78125 -63.929688 71.375 -66.578125 C 63.976562 -69.222656 58.179688 -71.648438 53.984375 -73.859375 C 43.390625 -79.378906 35 -85.617188 28.8125 -92.578125 C 22.632812 -99.535156 19.546875 -108.753906 19.546875 -120.234375 C 19.546875 -137.460938 26.222656 -150.878906 39.578125 -160.484375 C 52.941406 -170.085938 70.992188 -174.890625 93.734375 -174.890625 Z M 93.734375 -174.890625 "/></g></g></g><g fill="#ffffff" fill-opacity="1"><g transform="translate(312.9173, 297.232819)"><g><path d="M 194.765625 -148.890625 C 210.660156 -131.554688 218.609375 -110.300781 218.609375 -85.125 C 218.609375 -59.945312 210.660156 -38.632812 194.765625 -21.1875 C 178.867188 -3.75 158.664062 4.96875 134.15625 4.96875 C 111.625 4.96875 93.070312 -2.097656 78.5 -16.234375 L 78.5 86.125 L 19.875 86.125 L 19.875 -169.921875 L 77.84375 -169.921875 L 77.84375 -150.71875 L 78.5 -150.71875 C 93.070312 -166.832031 111.625 -174.890625 134.15625 -174.890625 C 158.664062 -174.890625 178.867188 -166.222656 194.765625 -148.890625 Z M 144.90625 -56.3125 C 152.53125 -63.820312 156.34375 -73.425781 156.34375 -85.125 C 156.34375 -96.832031 152.695312 -106.382812 145.40625 -113.78125 C 138.125 -121.175781 128.519531 -124.875 116.59375 -124.875 C 105.113281 -124.875 95.671875 -121.117188 88.265625 -113.609375 C 80.867188 -106.097656 77.171875 -96.601562 77.171875 -85.125 C 77.171875 -73.425781 80.976562 -63.820312 88.59375 -56.3125 C 96.21875 -48.800781 105.550781 -45.046875 116.59375 -45.046875 C 127.851562 -45.046875 137.289062 -48.800781 144.90625 -56.3125 Z M 144.90625 -56.3125 "/></g></g></g><g fill="#ffffff" fill-opacity="1"><g transform="translate(513.301499, 297.232819)"><g><path d="M 31.46875 -21.03125 C 15.570312 -38.363281 7.625 -59.617188 7.625 -84.796875 C 7.625 -109.972656 15.570312 -131.28125 31.46875 -148.71875 C 47.363281 -166.164062 67.566406 -174.890625 92.078125 -174.890625 C 114.609375 -174.890625 133.160156 -167.820312 147.734375 -153.6875 L 147.734375 -169.921875 L 206.359375 -169.921875 L 206.359375 0 L 148.390625 0 L 148.390625 -19.21875 L 147.734375 -19.21875 C 133.160156 -3.09375 114.609375 4.96875 92.078125 4.96875 C 67.566406 4.96875 47.363281 -3.695312 31.46875 -21.03125 Z M 81.3125 -113.609375 C 73.695312 -106.097656 69.890625 -96.488281 69.890625 -84.78125 C 69.890625 -73.082031 73.53125 -63.535156 80.8125 -56.140625 C 88.101562 -48.742188 97.710938 -45.046875 109.640625 -45.046875 C 121.117188 -45.046875 130.554688 -48.800781 137.953125 -56.3125 C 145.359375 -63.820312 149.0625 -73.316406 149.0625 -84.796875 C 149.0625 -96.492188 145.25 -106.097656 137.625 -113.609375 C 130.007812 -121.117188 120.679688 -124.875 109.640625 -124.875 C 98.378906 -124.875 88.9375 -121.117188 81.3125 -113.609375 Z M 81.3125 -113.609375 "/></g></g></g><g fill="#ffffff" fill-opacity="1"><g transform="translate(713.685699, 297.232819)"><g><path d="M 110.296875 -126.859375 C 99.253906 -126.859375 89.757812 -122.769531 81.8125 -114.59375 C 73.863281 -106.425781 69.890625 -96.601562 69.890625 -85.125 C 69.890625 -73.425781 73.863281 -63.488281 81.8125 -55.3125 C 89.757812 -47.144531 99.253906 -43.0625 110.296875 -43.0625 C 115.597656 -43.0625 120.625 -43.722656 125.375 -45.046875 C 130.125 -46.367188 133.601562 -47.691406 135.8125 -49.015625 L 138.78125 -51.015625 L 158.65625 -10.265625 C 157.113281 -9.160156 154.960938 -7.78125 152.203125 -6.125 C 149.441406 -4.46875 143.144531 -2.207031 133.3125 0.65625 C 123.488281 3.53125 112.945312 4.96875 101.6875 4.96875 C 76.738281 4.96875 54.820312 -3.804688 35.9375 -21.359375 C 17.0625 -38.921875 7.625 -59.957031 7.625 -84.46875 C 7.625 -109.195312 17.0625 -130.445312 35.9375 -148.21875 C 54.820312 -166 76.738281 -174.890625 101.6875 -174.890625 C 112.945312 -174.890625 123.320312 -173.5625 132.8125 -170.90625 C 142.3125 -168.257812 149.050781 -165.613281 153.03125 -162.96875 L 158.65625 -159 L 138.78125 -118.90625 C 131.5 -124.207031 122.003906 -126.859375 110.296875 -126.859375 Z M 110.296875 -126.859375 "/></g></g></g><g fill="#ffffff" fill-opacity="1"><g transform="translate(850.476, 297.232819)"><g><path d="M 25.5 -264.65625 C 32.34375 -271.5 40.515625 -274.921875 50.015625 -274.921875 C 59.515625 -274.921875 67.6875 -271.5 74.53125 -264.65625 C 81.375 -257.8125 84.796875 -249.640625 84.796875 -240.140625 C 84.796875 -230.648438 81.375 -222.476562 74.53125 -215.625 C 67.6875 -208.78125 59.515625 -205.359375 50.015625 -205.359375 C 40.515625 -205.359375 32.34375 -208.78125 25.5 -215.625 C 18.65625 -222.476562 15.234375 -230.648438 15.234375 -240.140625 C 15.234375 -249.640625 18.65625 -257.8125 25.5 -264.65625 Z M 19.875 -169.921875 L 19.875 0 L 78.5 0 L 78.5 -169.921875 Z M 19.875 -169.921875 "/></g></g></g><g fill="#ffffff" fill-opacity="1"><g transform="translate(924.665934, 297.232819)"><g><path d="M 35.9375 -20.203125 C 17.0625 -36.984375 7.625 -58.515625 7.625 -84.796875 C 7.625 -111.078125 17.445312 -132.660156 37.09375 -149.546875 C 56.75 -166.441406 81.039062 -174.890625 109.96875 -174.890625 C 138.457031 -174.890625 162.472656 -166.382812 182.015625 -149.375 C 201.554688 -132.375 211.328125 -110.84375 211.328125 -84.78125 C 211.328125 -58.726562 201.773438 -37.253906 182.671875 -20.359375 C 163.578125 -3.472656 139.34375 4.96875 109.96875 4.96875 C 79.5 4.96875 54.820312 -3.421875 35.9375 -20.203125 Z M 81.3125 -113.609375 C 73.695312 -106.097656 69.890625 -96.488281 69.890625 -84.78125 C 69.890625 -73.082031 73.53125 -63.535156 80.8125 -56.140625 C 88.101562 -48.742188 97.710938 -45.046875 109.640625 -45.046875 C 121.117188 -45.046875 130.554688 -48.800781 137.953125 -56.3125 C 145.359375 -63.820312 149.0625 -73.316406 149.0625 -84.796875 C 149.0625 -96.492188 145.25 -106.097656 137.625 -113.609375 C 130.007812 -121.117188 120.679688 -124.875 109.640625 -124.875 C 98.378906 -124.875 88.9375 -121.117188 81.3125 -113.609375 Z M 81.3125 -113.609375 "/></g></g></g><g fill="#ffffff" fill-opacity="1"><g transform="translate(1117.763269, 297.232819)"><g><path d="M 93.734375 -174.890625 C 103.453125 -174.890625 113.054688 -173.785156 122.546875 -171.578125 C 132.046875 -169.367188 139.113281 -167.160156 143.75 -164.953125 L 150.71875 -161.640625 L 131.5 -123.21875 C 118.25 -130.28125 105.660156 -133.8125 93.734375 -133.8125 C 87.109375 -133.8125 82.414062 -133.09375 79.65625 -131.65625 C 76.894531 -130.226562 75.515625 -127.523438 75.515625 -123.546875 C 75.515625 -122.660156 75.625 -121.773438 75.84375 -120.890625 C 76.070312 -120.015625 76.515625 -119.1875 77.171875 -118.40625 C 77.835938 -117.632812 78.445312 -116.972656 79 -116.421875 C 79.550781 -115.867188 80.488281 -115.257812 81.8125 -114.59375 C 83.132812 -113.9375 84.179688 -113.441406 84.953125 -113.109375 C 85.734375 -112.785156 87.003906 -112.289062 88.765625 -111.625 C 90.535156 -110.957031 91.863281 -110.457031 92.75 -110.125 C 93.632812 -109.800781 95.125 -109.304688 97.21875 -108.640625 C 99.3125 -107.984375 100.910156 -107.539062 102.015625 -107.3125 C 108.859375 -105.332031 114.820312 -103.125 119.90625 -100.6875 C 124.988281 -98.257812 130.34375 -94.945312 135.96875 -90.75 C 141.601562 -86.5625 145.960938 -81.265625 149.046875 -74.859375 C 152.140625 -68.453125 153.6875 -61.164062 153.6875 -53 C 153.6875 -14.351562 126.859375 4.96875 73.203125 4.96875 C 61.054688 4.96875 49.515625 3.09375 38.578125 -0.65625 C 27.648438 -4.414062 19.757812 -8.171875 14.90625 -11.921875 L 7.625 -17.890625 L 31.46875 -57.96875 C 33.226562 -56.414062 35.546875 -54.59375 38.421875 -52.5 C 41.296875 -50.40625 46.484375 -47.535156 53.984375 -43.890625 C 61.492188 -40.242188 68.007812 -38.421875 73.53125 -38.421875 C 85.675781 -38.421875 91.75 -42.503906 91.75 -50.671875 C 91.75 -54.429688 90.203125 -57.359375 87.109375 -59.453125 C 84.023438 -61.554688 78.78125 -63.929688 71.375 -66.578125 C 63.976562 -69.222656 58.179688 -71.648438 53.984375 -73.859375 C 43.390625 -79.378906 35 -85.617188 28.8125 -92.578125 C 22.632812 -99.535156 19.546875 -108.753906 19.546875 -120.234375 C 19.546875 -137.460938 26.222656 -150.878906 39.578125 -160.484375 C 52.941406 -170.085938 70.992188 -174.890625 93.734375 -174.890625 Z M 93.734375 -174.890625 "/></g></g></g></g></g><g clip-path="url(#31daed0f3c)"><path fill="#cca300" d="M 909.828125 747.621094 L 866.058594 747.621094 C 791.125 731.40625 774.460938 714.683594 758.246094 639.636719 L 758.246094 597.574219 L 752.707031 597.574219 L 752.707031 640.078125 C 736.523438 714.75 719.777344 731.4375 644.992188 747.621094 L 613.058594 747.621094 L 613.058594 753.160156 L 644.992188 753.160156 C 719.777344 769.34375 736.523438 786.03125 752.707031 860.703125 L 752.707031 902.425781 L 758.246094 902.425781 L 758.246094 861.144531 C 774.460938 786.097656 791.125 769.378906 866.058594 753.160156 L 909.828125 753.160156 Z M 909.828125 747.621094 " fill-opacity="1" fill-rule="nonzero"/></g><g transform="matrix(1, 0, 0, 1, 568, 860)"><g clip-path="url(#7dea871018)"><g fill="#ffffff" fill-opacity="1"><g transform="translate(0.414156, 59.819417)"><g><path d="M 17.140625 -42.65625 L 22.953125 -42.65625 L 39.46875 0 L 29.828125 0 L 27.265625 -7.0625 L 12.828125 -7.0625 L 10.3125 0 L 0.625 0 Z M 24.453125 -14.953125 L 20.078125 -27.265625 L 15.640625 -14.953125 Z M 24.453125 -14.953125 "/></g></g></g><g fill="#ffffff" fill-opacity="1"><g transform="translate(59.276161, 59.819417)"><g><path d="M 4.6875 -41.90625 L 17.828125 -41.90625 C 19.992188 -41.90625 22.003906 -41.570312 23.859375 -40.90625 C 25.710938 -40.238281 27.304688 -39.300781 28.640625 -38.09375 C 29.972656 -36.882812 31.015625 -35.445312 31.765625 -33.78125 C 32.523438 -32.113281 32.90625 -30.296875 32.90625 -28.328125 C 32.90625 -25.828125 32.296875 -23.566406 31.078125 -21.546875 C 29.867188 -19.523438 28.203125 -17.953125 26.078125 -16.828125 L 35.90625 0 L 25.265625 0 L 17.140625 -14.703125 L 13.828125 -14.703125 L 13.828125 0 L 4.6875 0 Z M 17.390625 -22.765625 C 19.347656 -22.765625 20.898438 -23.253906 22.046875 -24.234375 C 23.191406 -25.210938 23.765625 -26.554688 23.765625 -28.265625 C 23.765625 -29.972656 23.179688 -31.242188 22.015625 -32.078125 C 20.847656 -32.921875 19.304688 -33.34375 17.390625 -33.34375 L 13.828125 -33.34375 L 13.828125 -22.765625 Z M 17.390625 -22.765625 "/></g></g></g><g fill="#ffffff" fill-opacity="1"><g transform="translate(114.885544, 59.819417)"><g><path d="M 37.71875 13.265625 C 35.132812 13.265625 32.765625 12.941406 30.609375 12.296875 C 28.460938 11.648438 26.578125 10.75 24.953125 9.59375 C 23.328125 8.445312 22.023438 7.09375 21.046875 5.53125 C 20.066406 3.96875 19.453125 2.25 19.203125 0.375 C 16.703125 -0.121094 14.40625 -1.019531 12.3125 -2.3125 C 10.226562 -3.601562 8.4375 -5.1875 6.9375 -7.0625 C 5.4375 -8.9375 4.269531 -11.050781 3.4375 -13.40625 C 2.601562 -15.769531 2.1875 -18.285156 2.1875 -20.953125 C 2.1875 -24.035156 2.738281 -26.910156 3.84375 -29.578125 C 4.945312 -32.253906 6.46875 -34.570312 8.40625 -36.53125 C 10.351562 -38.488281 12.640625 -40.019531 15.265625 -41.125 C 17.890625 -42.226562 20.742188 -42.78125 23.828125 -42.78125 C 26.910156 -42.78125 29.765625 -42.226562 32.390625 -41.125 C 35.023438 -40.019531 37.3125 -38.488281 39.25 -36.53125 C 41.1875 -34.570312 42.707031 -32.253906 43.8125 -29.578125 C 44.914062 -26.910156 45.46875 -24.035156 45.46875 -20.953125 C 45.46875 -18.328125 45.050781 -15.832031 44.21875 -13.46875 C 43.382812 -11.113281 42.238281 -9.007812 40.78125 -7.15625 C 39.320312 -5.300781 37.5625 -3.726562 35.5 -2.4375 C 33.4375 -1.144531 31.191406 -0.226562 28.765625 0.3125 C 29.222656 1.8125 30.273438 3.007812 31.921875 3.90625 C 33.578125 4.800781 35.59375 5.25 37.96875 5.25 C 39.882812 5.25 41.238281 5.195312 42.03125 5.09375 C 42.820312 4.988281 43.257812 4.914062 43.34375 4.875 L 44.40625 12.453125 C 43.40625 12.703125 42.34375 12.898438 41.21875 13.046875 C 40.09375 13.191406 38.925781 13.265625 37.71875 13.265625 Z M 23.828125 -8 C 25.578125 -8 27.179688 -8.320312 28.640625 -8.96875 C 30.097656 -9.613281 31.359375 -10.519531 32.421875 -11.6875 C 33.492188 -12.863281 34.332031 -14.242188 34.9375 -15.828125 C 35.539062 -17.410156 35.84375 -19.117188 35.84375 -20.953125 C 35.84375 -22.785156 35.539062 -24.492188 34.9375 -26.078125 C 34.332031 -27.660156 33.492188 -29.023438 32.421875 -30.171875 C 31.359375 -31.328125 30.097656 -32.238281 28.640625 -32.90625 C 27.179688 -33.570312 25.578125 -33.90625 23.828125 -33.90625 C 22.078125 -33.90625 20.472656 -33.570312 19.015625 -32.90625 C 17.554688 -32.238281 16.296875 -31.328125 15.234375 -30.171875 C 14.171875 -29.023438 13.335938 -27.660156 12.734375 -26.078125 C 12.128906 -24.492188 11.828125 -22.785156 11.828125 -20.953125 C 11.828125 -19.117188 12.128906 -17.410156 12.734375 -15.828125 C 13.335938 -14.242188 14.171875 -12.875 15.234375 -11.71875 C 16.296875 -10.570312 17.554688 -9.664062 19.015625 -9 C 20.472656 -8.332031 22.078125 -8 23.828125 -8 Z M 23.828125 -8 "/></g></g></g><g fill="#ffffff" fill-opacity="1"><g transform="translate(181.316159, 59.819417)"><g><path d="M 21.453125 0.875 C 18.953125 0.875 16.660156 0.433594 14.578125 -0.4375 C 12.492188 -1.3125 10.695312 -2.53125 9.1875 -4.09375 C 7.6875 -5.65625 6.507812 -7.53125 5.65625 -9.71875 C 4.800781 -11.914062 4.375 -14.304688 4.375 -16.890625 L 4.375 -41.90625 L 13.515625 -41.90625 L 13.515625 -17.015625 C 13.515625 -14.222656 14.234375 -12.019531 15.671875 -10.40625 C 17.109375 -8.800781 19.015625 -8 21.390625 -8 C 23.765625 -8 25.679688 -8.800781 27.140625 -10.40625 C 28.597656 -12.019531 29.328125 -14.222656 29.328125 -17.015625 L 29.328125 -41.90625 L 38.46875 -41.90625 L 38.46875 -16.890625 C 38.46875 -14.304688 38.039062 -11.914062 37.1875 -9.71875 C 36.332031 -7.53125 35.15625 -5.65625 33.65625 -4.09375 C 32.15625 -2.53125 30.359375 -1.3125 28.265625 -0.4375 C 26.179688 0.433594 23.910156 0.875 21.453125 0.875 Z M 21.453125 0.875 "/></g></g></g><g fill="#ffffff" fill-opacity="1"><g transform="translate(242.930384, 59.819417)"><g><path d="M 4.6875 -41.90625 L 13.828125 -41.90625 L 13.828125 0 L 4.6875 0 Z M 4.6875 -41.90625 "/></g></g></g><g fill="#ffffff" fill-opacity="1"><g transform="translate(280.212493, 59.819417)"><g><path d="M 13.453125 -33.34375 L 1.25 -33.34375 L 1.25 -41.90625 L 34.78125 -41.90625 L 34.78125 -33.34375 L 22.578125 -33.34375 L 22.578125 0 L 13.453125 0 Z M 13.453125 -33.34375 "/></g></g></g><g fill="#ffffff" fill-opacity="1"><g transform="translate(335.008724, 59.819417)"><g><path d="M 4.6875 -41.90625 L 28.640625 -41.90625 L 28.640625 -33.34375 L 13.828125 -33.34375 L 13.828125 -25.640625 L 24.640625 -25.640625 L 24.640625 -17.078125 L 13.828125 -17.078125 L 13.828125 -8.5625 L 28.953125 -8.5625 L 28.953125 0 L 4.6875 0 Z M 4.6875 -41.90625 "/></g></g></g><g fill="#ffffff" fill-opacity="1"><g transform="translate(385.864285, 59.819417)"><g><path d="M 23.953125 0.875 C 20.828125 0.875 17.929688 0.332031 15.265625 -0.75 C 12.597656 -1.832031 10.289062 -3.34375 8.34375 -5.28125 C 6.40625 -7.21875 4.894531 -9.519531 3.8125 -12.1875 C 2.726562 -14.863281 2.1875 -17.765625 2.1875 -20.890625 C 2.1875 -24.015625 2.738281 -26.910156 3.84375 -29.578125 C 4.945312 -32.253906 6.46875 -34.570312 8.40625 -36.53125 C 10.351562 -38.488281 12.648438 -40.019531 15.296875 -41.125 C 17.941406 -42.226562 20.804688 -42.78125 23.890625 -42.78125 C 27.140625 -42.78125 30.160156 -42.15625 32.953125 -40.90625 C 35.753906 -39.65625 38.175781 -37.863281 40.21875 -35.53125 L 33.84375 -29.328125 C 32.632812 -30.753906 31.203125 -31.875 29.546875 -32.6875 C 27.898438 -33.5 26.097656 -33.90625 24.140625 -33.90625 C 22.347656 -33.90625 20.703125 -33.582031 19.203125 -32.9375 C 17.703125 -32.289062 16.398438 -31.390625 15.296875 -30.234375 C 14.191406 -29.085938 13.335938 -27.722656 12.734375 -26.140625 C 12.128906 -24.554688 11.828125 -22.847656 11.828125 -21.015625 C 11.828125 -19.140625 12.140625 -17.410156 12.765625 -15.828125 C 13.390625 -14.242188 14.253906 -12.863281 15.359375 -11.6875 C 16.460938 -10.519531 17.785156 -9.613281 19.328125 -8.96875 C 20.867188 -8.320312 22.554688 -8 24.390625 -8 C 26.390625 -8 28.222656 -8.414062 29.890625 -9.25 C 31.566406 -10.09375 32.988281 -11.222656 34.15625 -12.640625 L 40.53125 -6.5625 C 38.53125 -4.1875 36.117188 -2.351562 33.296875 -1.0625 C 30.484375 0.226562 27.367188 0.875 23.953125 0.875 Z M 23.953125 0.875 "/></g></g></g><g fill="#ffffff" fill-opacity="1"><g transform="translate(446.415119, 59.819417)"><g><path d="M 13.453125 -33.34375 L 1.25 -33.34375 L 1.25 -41.90625 L 34.78125 -41.90625 L 34.78125 -33.34375 L 22.578125 -33.34375 L 22.578125 0 L 13.453125 0 Z M 13.453125 -33.34375 "/></g></g></g><g fill="#ffffff" fill-opacity="1"><g transform="translate(501.211372, 59.819417)"><g><path d="M 23.828125 0.875 C 20.742188 0.875 17.890625 0.308594 15.265625 -0.8125 C 12.640625 -1.9375 10.351562 -3.476562 8.40625 -5.4375 C 6.46875 -7.394531 4.945312 -9.695312 3.84375 -12.34375 C 2.738281 -15 2.1875 -17.867188 2.1875 -20.953125 C 2.1875 -24.035156 2.738281 -26.910156 3.84375 -29.578125 C 4.945312 -32.253906 6.46875 -34.570312 8.40625 -36.53125 C 10.351562 -38.488281 12.640625 -40.019531 15.265625 -41.125 C 17.890625 -42.226562 20.742188 -42.78125 23.828125 -42.78125 C 26.867188 -42.78125 29.710938 -42.226562 32.359375 -41.125 C 35.015625 -40.019531 37.3125 -38.488281 39.25 -36.53125 C 41.1875 -34.570312 42.707031 -32.253906 43.8125 -29.578125 C 44.914062 -26.910156 45.46875 -24.035156 45.46875 -20.953125 C 45.46875 -17.867188 44.914062 -15 43.8125 -12.34375 C 42.707031 -9.695312 41.1875 -7.394531 39.25 -5.4375 C 37.3125 -3.476562 35.015625 -1.9375 32.359375 -0.8125 C 29.710938 0.308594 26.867188 0.875 23.828125 0.875 Z M 23.828125 -8 C 25.578125 -8 27.179688 -8.320312 28.640625 -8.96875 C 30.097656 -9.613281 31.359375 -10.519531 32.421875 -11.6875 C 33.492188 -12.863281 34.332031 -14.242188 34.9375 -15.828125 C 35.539062 -17.410156 35.84375 -19.117188 35.84375 -20.953125 C 35.84375 -22.785156 35.539062 -24.492188 34.9375 -26.078125 C 34.332031 -27.660156 33.492188 -29.023438 32.421875 -30.171875 C 31.359375 -31.328125 30.097656 -32.238281 28.640625 -32.90625 C 27.179688 -33.570312 25.578125 -33.90625 23.828125 -33.90625 C 22.078125 -33.90625 20.472656 -33.570312 19.015625 -32.90625 C 17.554688 -32.238281 16.296875 -31.328125 15.234375 -30.171875 C 14.171875 -29.023438 13.335938 -27.660156 12.734375 -26.078125 C 12.128906 -24.492188 11.828125 -22.785156 11.828125 -20.953125 C 11.828125 -19.117188 12.128906 -17.410156 12.734375 -15.828125 C 13.335938 -14.242188 14.171875 -12.875 15.234375 -11.71875 C 16.296875 -10.570312 17.554688 -9.664062 19.015625 -9 C 20.472656 -8.332031 22.078125 -8 23.828125 -8 Z M 20.328125 -47.421875 L 26.390625 -58.671875 L 32.46875 -55.046875 L 25.140625 -44.609375 Z M 20.328125 -47.421875 "/></g></g></g><g fill="#ffffff" fill-opacity="1"><g transform="translate(567.641987, 59.819417)"><g><path d="M 13.328125 -24.953125 L 13.328125 0 L 4.6875 0 L 4.6875 -42.65625 L 9.4375 -42.65625 L 32.84375 -16.953125 L 32.84375 -41.90625 L 41.46875 -41.90625 L 41.46875 0.75 L 36.71875 0.75 Z M 13.328125 -24.953125 "/></g></g></g><g fill="#ffffff" fill-opacity="1"><g transform="translate(632.571411, 59.819417)"><g><path d="M 4.6875 -41.90625 L 13.828125 -41.90625 L 13.828125 0 L 4.6875 0 Z M 4.6875 -41.90625 "/></g></g></g><g fill="#ffffff" fill-opacity="1"><g transform="translate(669.853476, 59.819417)"><g><path d="M 23.953125 0.875 C 20.828125 0.875 17.929688 0.332031 15.265625 -0.75 C 12.597656 -1.832031 10.289062 -3.34375 8.34375 -5.28125 C 6.40625 -7.21875 4.894531 -9.519531 3.8125 -12.1875 C 2.726562 -14.863281 2.1875 -17.765625 2.1875 -20.890625 C 2.1875 -24.015625 2.738281 -26.910156 3.84375 -29.578125 C 4.945312 -32.253906 6.46875 -34.570312 8.40625 -36.53125 C 10.351562 -38.488281 12.648438 -40.019531 15.296875 -41.125 C 17.941406 -42.226562 20.804688 -42.78125 23.890625 -42.78125 C 27.140625 -42.78125 30.160156 -42.15625 32.953125 -40.90625 C 35.753906 -39.65625 38.175781 -37.863281 40.21875 -35.53125 L 33.84375 -29.328125 C 32.632812 -30.753906 31.203125 -31.875 29.546875 -32.6875 C 27.898438 -33.5 26.097656 -33.90625 24.140625 -33.90625 C 22.347656 -33.90625 20.703125 -33.582031 19.203125 -32.9375 C 17.703125 -32.289062 16.398438 -31.390625 15.296875 -30.234375 C 14.191406 -29.085938 13.335938 -27.722656 12.734375 -26.140625 C 12.128906 -24.554688 11.828125 -22.847656 11.828125 -21.015625 C 11.828125 -19.140625 12.140625 -17.410156 12.765625 -15.828125 C 13.390625 -14.242188 14.253906 -12.863281 15.359375 -11.6875 C 16.460938 -10.519531 17.785156 -9.613281 19.328125 -8.96875 C 20.867188 -8.320312 22.554688 -8 24.390625 -8 C 26.390625 -8 28.222656 -8.414062 29.890625 -9.25 C 31.566406 -10.09375 32.988281 -11.222656 34.15625 -12.640625 L 40.53125 -6.5625 C 38.53125 -4.1875 36.117188 -2.351562 33.296875 -1.0625 C 30.484375 0.226562 27.367188 0.875 23.953125 0.875 Z M 23.953125 0.875 "/></g></g></g><g fill="#ffffff" fill-opacity="1"><g transform="translate(730.404354, 59.819417)"><g><path d="M 23.828125 0.875 C 20.742188 0.875 17.890625 0.308594 15.265625 -0.8125 C 12.640625 -1.9375 10.351562 -3.476562 8.40625 -5.4375 C 6.46875 -7.394531 4.945312 -9.695312 3.84375 -12.34375 C 2.738281 -15 2.1875 -17.867188 2.1875 -20.953125 C 2.1875 -24.035156 2.738281 -26.910156 3.84375 -29.578125 C 4.945312 -32.253906 6.46875 -34.570312 8.40625 -36.53125 C 10.351562 -38.488281 12.640625 -40.019531 15.265625 -41.125 C 17.890625 -42.226562 20.742188 -42.78125 23.828125 -42.78125 C 26.867188 -42.78125 29.710938 -42.226562 32.359375 -41.125 C 35.015625 -40.019531 37.3125 -38.488281 39.25 -36.53125 C 41.1875 -34.570312 42.707031 -32.253906 43.8125 -29.578125 C 44.914062 -26.910156 45.46875 -24.035156 45.46875 -20.953125 C 45.46875 -17.867188 44.914062 -15 43.8125 -12.34375 C 42.707031 -9.695312 41.1875 -7.394531 39.25 -5.4375 C 37.3125 -3.476562 35.015625 -1.9375 32.359375 -0.8125 C 29.710938 0.308594 26.867188 0.875 23.828125 0.875 Z M 23.828125 -8 C 25.578125 -8 27.179688 -8.320312 28.640625 -8.96875 C 30.097656 -9.613281 31.359375 -10.519531 32.421875 -11.6875 C 33.492188 -12.863281 34.332031 -14.242188 34.9375 -15.828125 C 35.539062 -17.410156 35.84375 -19.117188 35.84375 -20.953125 C 35.84375 -22.785156 35.539062 -24.492188 34.9375 -26.078125 C 34.332031 -27.660156 33.492188 -29.023438 32.421875 -30.171875 C 31.359375 -31.328125 30.097656 -32.238281 28.640625 -32.90625 C 27.179688 -33.570312 25.578125 -33.90625 23.828125 -33.90625 C 22.078125 -33.90625 20.472656 -33.570312 19.015625 -32.90625 C 17.554688 -32.238281 16.296875 -31.328125 15.234375 -30.171875 C 14.171875 -29.023438 13.335938 -27.660156 12.734375 -26.078125 C 12.128906 -24.492188 11.828125 -22.785156 11.828125 -20.953125 C 11.828125 -19.117188 12.128906 -17.410156 12.734375 -15.828125 C 13.335938 -14.242188 14.171875 -12.875 15.234375 -11.71875 C 16.296875 -10.570312 17.554688 -9.664062 19.015625 -9 C 20.472656 -8.332031 22.078125 -8 23.828125 -8 Z M 23.828125 -8 "/></g></g></g><g fill="#ffffff" fill-opacity="1"><g transform="translate(796.835012, 59.819417)"><g><path d="M 15.953125 1.125 C 12.703125 1.125 9.78125 0.394531 7.1875 -1.0625 C 4.601562 -2.519531 2.519531 -4.625 0.9375 -7.375 L 7.3125 -12.703125 C 9.488281 -8.816406 12.347656 -6.875 15.890625 -6.875 C 17.472656 -6.875 18.753906 -7.257812 19.734375 -8.03125 C 20.710938 -8.800781 21.203125 -9.816406 21.203125 -11.078125 C 21.203125 -12.242188 20.722656 -13.253906 19.765625 -14.109375 C 18.804688 -14.960938 17.078125 -15.929688 14.578125 -17.015625 C 10.691406 -18.722656 7.863281 -20.628906 6.09375 -22.734375 C 4.320312 -24.835938 3.4375 -27.347656 3.4375 -30.265625 C 3.4375 -32.109375 3.769531 -33.800781 4.4375 -35.34375 C 5.101562 -36.882812 6.039062 -38.207031 7.25 -39.3125 C 8.457031 -40.414062 9.894531 -41.269531 11.5625 -41.875 C 13.238281 -42.476562 15.078125 -42.78125 17.078125 -42.78125 C 22.367188 -42.78125 26.847656 -40.507812 30.515625 -35.96875 L 24.453125 -30.453125 C 23.285156 -32.003906 22.117188 -33.144531 20.953125 -33.875 C 19.785156 -34.601562 18.492188 -34.96875 17.078125 -34.96875 C 15.703125 -34.96875 14.609375 -34.625 13.796875 -33.9375 C 12.984375 -33.25 12.578125 -32.316406 12.578125 -31.140625 C 12.578125 -29.847656 13.117188 -28.785156 14.203125 -27.953125 C 15.285156 -27.117188 16.910156 -26.222656 19.078125 -25.265625 C 23.035156 -23.515625 25.898438 -21.566406 27.671875 -19.421875 C 29.441406 -17.273438 30.328125 -14.742188 30.328125 -11.828125 C 30.328125 -9.898438 29.972656 -8.144531 29.265625 -6.5625 C 28.554688 -4.976562 27.578125 -3.613281 26.328125 -2.46875 C 25.078125 -1.320312 23.566406 -0.433594 21.796875 0.1875 C 20.023438 0.8125 18.078125 1.125 15.953125 1.125 Z M 15.953125 1.125 "/></g></g></g></g></g></svg>